<?xml version="1.0" encoding="utf-8"?>
<!-- Generator: Adobe Illustrator 21.0.0, SVG Export Plug-In . SVG Version: 6.00 Build 0)  -->
<svg version="1.1" xmlns="http://www.w3.org/2000/svg" xmlns:xlink="http://www.w3.org/1999/xlink" x="0px" y="0px"
	 viewBox="0 0 50.6 32.8" style="enable-background:new 0 0 50.6 32.8;" xml:space="preserve">
<style type="text/css">
	.st0{fill:#FFFFFF;}
</style>
<g id="Capa_2">
</g>
<g id="Capa_3">
</g>
<g id="Capa_1">
	<g>
		<path class="st0" d="M19.6,11.2c0-3.2,0.8-6.2,2.1-9.1C22,1.5,22.5,1.2,23.1,1c1.4-0.4,2.8-0.4,4.2,0c0.8,0.2,1.4,0.7,1.7,1.6
			c1.1,2.6,1.8,5.3,1.9,8.3c0.1,3.2-0.5,6.1-2.2,8.7c-0.7,1-1.5,1.8-2.7,2.1c-1.8,0.4-3.2-0.5-4.3-2.1c-1.3-1.9-1.9-4.1-2.1-6.4
			C19.7,12.5,19.7,11.9,19.6,11.2z"/>
		<path class="st0" d="M0.9,21.9c1.5-1,2.8-2,4.2-3c2.6-1.7,5.1-1.5,7.5,0.5c1.1,0.9,2.1,1.9,3.2,2.7c1.6,1.2,3.3,1.8,5.4,1.9
			c-0.3,0.4-0.6,0.7-0.8,1c-2.7,3.2-6.5,2.7-8.7,0.3c-1.5-1.6-3-3-5.1-3.3C5,22,3.4,22,1.9,21.9C1.6,21.8,1.3,21.9,0.9,21.9z"/>
		<path class="st0" d="M29.5,24.1c3-0.1,5.4-1.7,7.5-3.8c0.9-0.9,1.9-1.8,3.1-2.2c1.7-0.6,3.4-0.4,5,0.6c1.5,1,3,2.1,4.5,3.1
			c-0.3,0-0.5,0-0.8,0c-1.4,0.1-2.9,0.1-4.3,0.3c-1.8,0.2-3.4,1.2-4.7,2.6c-0.9,1-1.9,1.9-3.1,2.3C33.9,28,31.4,27,29.5,24.1z"/>
		<path class="st0" d="M32.8,2.9c2.3,1.6,4.3,3.5,4.9,6.7c0.5,2.5-0.1,4.7-1.3,6.7c-1.9,2.9-4.5,4.4-7.5,5.1c-0.1,0-0.3,0.1-0.4,0.1
			c0,0,0,0-0.1,0c2.8-1.9,4.6-4.6,5.4-8.2C34.5,9.7,34.1,6.3,32.8,2.9z"/>
		<path class="st0" d="M22.1,21.5c-3.4-0.8-6.3-2.4-8.3-5.8c-1.8-3.2-1.5-7,0.7-9.8c0.9-1.2,2-2.1,3.2-3
			C15.3,10.3,16.2,16.7,22.1,21.5z"/>
		<path class="st0" d="M25.6,24.1c0.4,0,0.8,0,1.1,0c0.4,0,0.7,0.1,0.8,0.6c0.7,2.3,0.8,4.5-0.5,6.5c-0.8,1.2-1.7,1.3-2.7,0.1
			c-1.6-2-1.6-4.8-0.6-7c0.1-0.1,0.3-0.2,0.4-0.2C24.7,24.1,25.2,24.1,25.6,24.1C25.6,24.1,25.6,24.1,25.6,24.1z"/>
	</g>
</g>
</svg>
